<svg width="184" height="191" viewBox="0 0 184 191" fill="none" xmlns="http://www.w3.org/2000/svg">
<path d="M39.2 2.86669C34.8 5.53336 32 11.4 32 18.0667C32 21 31.4667 21.8 30 21.1334C26.1333 19.6667 15.2 23 10.1333 27.1334C7.46667 29.4 4.13333 33.5334 2.66667 36.4667C0.133333 41.2667 0 44.4667 0 105.667C0 166.867 0.133333 170.067 2.66667 174.867C6.4 182.333 13.8667 187.933 22.1333 189.667C26.6667 190.6 51.8667 191 96.1333 190.733C162 190.333 163.467 190.333 168.667 187.4C175.333 183.8 179.333 179.667 182 173.4C183.733 169.133 184 159.267 184 105C184 35.1334 184.267 37.8 175.6 28.6C170.933 23.6667 159.2 19.5334 153.867 20.8667C150.933 21.6667 150.667 21.4 150.667 16.4667C150.667 9.53336 148.667 5.26669 144 2.60003C139.2 -0.333306 132.8 -0.333306 128 2.60003C123.467 5.26669 121.333 9.53336 121.333 16.0667V21H92H62.6667V15.1334C62.6667 10.3334 61.8667 8.60003 58.1333 4.86669C52.8 -0.466639 45.8667 -1.26664 39.2 2.86669ZM52.4 5.80003C55.8667 7.40003 58.6667 12.0667 58.6667 16.4667C58.6667 17.9334 60.1333 20.6 62 22.4667L65.4667 25.9334L92.5333 25.4C117.067 25 120 24.7334 122.533 22.4667C124.133 21 125.333 18.3334 125.333 16.0667C125.333 11.8 131.6 4.33336 135.2 4.33336C141.067 4.33336 146.667 10.0667 146.667 16.0667C146.667 20.4667 150.533 24.0667 156.267 25C164.133 26.3334 170.533 29.1334 173.733 32.7334C179.867 39.6667 180 40.7334 180 105.267C180 174.067 180 173.4 169.867 181.133L164.933 185L94.1333 185.4C55.2 185.533 22 185.4 20.4 185C15.8667 183.933 8.13333 176.6 6 171.267C4.4 167.533 4 156.067 4 105.8C4 49.5334 4.26667 44.6 6.53333 39.6667C10.5333 30.8667 18 25.6667 26.4 25.6667C32 25.6667 35.6 22.3334 36.6667 16.4667C38.2667 6.73336 44.8 2.33336 52.4 5.80003Z" fill="#009688"/>
<path d="M68.5333 41C66.8 43.5333 66.5333 47.2667 66.9333 60.2C67.3333 75.5333 67.2 76.2 64.5333 76.8667C62.9333 77.2667 53.2 77.6667 42.9333 77.5333C13.6 77.5333 14.6667 75.6667 14.6667 125.667C14.6667 167.933 15.2 171 23.4667 174.467C30 177.133 154 177.133 160.533 174.467C169.067 170.867 169.467 168.067 169.067 123.533L168.667 84.0667L164.933 80.8667C161.333 77.8 160.267 77.6667 142.8 77.6667C132.667 77.6667 122.667 77.2667 120.533 76.8667L116.667 76.2L117.067 60.0667C117.467 47.2667 117.067 43.5333 115.333 40.8667C112.267 36.0667 109.333 36.8667 101.333 45C97.3333 49 93.2 52.3333 92 52.3333C90.9333 52.3333 87.4667 49.6667 84.2667 46.3333C75.2 36.8667 72 35.8 68.5333 41ZM82.6667 50.4667L92.2667 60.7333L101.6 50.4667C106.667 44.8667 111.467 40.3333 112.133 40.3333C112.8 40.3333 113.333 48.0667 113.333 57.6667V75H108.667H104V68.7333V62.4667L97.8667 68.3333L91.8667 74.3333L86.5333 68.6C83.6 65.5333 80.9333 63 80.6667 63C80.2667 63 80 65.6667 80 69C80 75 80 75 75.3333 75H70.6667V57.6667C70.6667 48.0667 71.2 40.3333 71.8667 40.3333C72.5333 40.3333 77.3333 44.8667 82.6667 50.4667ZM163.2 84.6C165.067 87.1333 165.333 93.2667 165.333 125.267C165.333 163.267 164.8 168.6 160.267 170.333C157.6 171.267 26.2667 171.267 23.6 170.2C22.5333 169.8 21.2 168.467 20.6667 167.267C20.2667 166.067 19.8667 147 19.8667 125C20 88.8667 20.1333 84.8667 22.2667 83.4C24 82.0667 40.2667 81.6667 92.8 81.6667H161.2L163.2 84.6Z" fill="#009688"/>
<path d="M107.333 116.333L84.6667 139L73.3333 127.667C67.0667 121.4 61.0667 116.333 59.8667 116.333C57.7333 116.333 49.3333 124.333 49.3333 126.467C49.3333 129 82 160.333 84.6667 160.333C86.4 160.333 97.4667 150.2 115.067 132.6C130.267 117.4 142.667 104.6 142.667 104.067C142.667 101.933 134.267 93.6667 132.133 93.6667C130.933 93.6667 119.733 103.8 107.333 116.333ZM135.733 103.667C136 105.533 129.2 113.133 111.6 130.6C98.1333 144.067 86.2667 155 84.9333 155C82 155 56 129.8 56 126.867C56 125.667 56.8 123.933 57.8667 123.133C60.4 121 63.4667 122.6 69.4667 129.267C76.4 136.867 82.5333 141.667 85.4667 141.667C87.0667 141.667 96.2667 133.533 109.067 121C130.133 100.2 134.8 97.1333 135.733 103.667Z" fill="#009688"/>
</svg>
